<svg width="10" height="6" viewBox="0 0 10 6" fill="none" xmlns="http://www.w3.org/2000/svg">
<path fill-rule="evenodd" clip-rule="evenodd" d="M1.19869 0.600008C1.45693 0.403119 1.82588 0.452851 2.02277 0.711088L4.9567 4.5592C5.02975 4.60755 5.13639 4.60755 5.20944 4.5592L8.14337 0.711088C8.34026 0.452851 8.70921 0.403119 8.96745 0.600008C9.22568 0.796896 9.27542 1.16585 9.07853 1.42408L6.13447 5.28547C6.10012 5.33053 6.04812 5.39289 5.97611 5.45256C5.46302 5.87771 4.70313 5.87771 4.19003 5.45256C4.11802 5.39289 4.06602 5.33053 4.03167 5.28547L1.08761 1.42408C0.890725 1.16585 0.940458 0.796896 1.19869 0.600008Z" fill="white"/>
</svg>
